<mxfile host="app.diagrams.net" agent="Mozilla/5.0 (Windows NT 10.0; Win64; x64) AppleWebKit/537.36 (KHTML, like Gecko) Chrome/136.0.0.0 Safari/537.36" version="26.2.6">
  <diagram name="Página-1" id="93Hrzo6ztQMAZmDIsnvo">
    <mxGraphModel dx="2255" dy="777" grid="1" gridSize="10" guides="1" tooltips="1" connect="1" arrows="1" fold="1" page="1" pageScale="1" pageWidth="827" pageHeight="1169" math="0" shadow="0">
      <root>
        <mxCell id="0" />
        <mxCell id="1" parent="0" />
        <mxCell id="y-c79x19_z0pfd8Fm0gz-28" style="edgeStyle=orthogonalEdgeStyle;rounded=0;orthogonalLoop=1;jettySize=auto;html=1;" edge="1" parent="1" source="y-c79x19_z0pfd8Fm0gz-1" target="y-c79x19_z0pfd8Fm0gz-3">
          <mxGeometry relative="1" as="geometry" />
        </mxCell>
        <mxCell id="y-c79x19_z0pfd8Fm0gz-30" style="edgeStyle=orthogonalEdgeStyle;rounded=0;orthogonalLoop=1;jettySize=auto;html=1;" edge="1" parent="1" source="y-c79x19_z0pfd8Fm0gz-1" target="y-c79x19_z0pfd8Fm0gz-2">
          <mxGeometry relative="1" as="geometry" />
        </mxCell>
        <mxCell id="y-c79x19_z0pfd8Fm0gz-1" value="Actor" style="shape=umlActor;verticalLabelPosition=bottom;verticalAlign=top;html=1;outlineConnect=0;" vertex="1" parent="1">
          <mxGeometry x="30" y="140" width="30" height="60" as="geometry" />
        </mxCell>
        <mxCell id="y-c79x19_z0pfd8Fm0gz-57" style="edgeStyle=orthogonalEdgeStyle;rounded=0;orthogonalLoop=1;jettySize=auto;html=1;" edge="1" parent="1" source="y-c79x19_z0pfd8Fm0gz-2">
          <mxGeometry relative="1" as="geometry">
            <mxPoint x="40" y="330" as="targetPoint" />
          </mxGeometry>
        </mxCell>
        <mxCell id="y-c79x19_z0pfd8Fm0gz-2" value="Iniciar Sesión" style="ellipse;whiteSpace=wrap;html=1;" vertex="1" parent="1">
          <mxGeometry x="110" y="250" width="90" height="50" as="geometry" />
        </mxCell>
        <mxCell id="y-c79x19_z0pfd8Fm0gz-3" value="Registro" style="ellipse;whiteSpace=wrap;html=1;" vertex="1" parent="1">
          <mxGeometry x="-120" y="260" width="90" height="50" as="geometry" />
        </mxCell>
        <mxCell id="y-c79x19_z0pfd8Fm0gz-14" style="edgeStyle=orthogonalEdgeStyle;rounded=0;orthogonalLoop=1;jettySize=auto;html=1;entryX=0.589;entryY=-0.05;entryDx=0;entryDy=0;entryPerimeter=0;" edge="1" parent="1" source="y-c79x19_z0pfd8Fm0gz-4" target="y-c79x19_z0pfd8Fm0gz-7">
          <mxGeometry relative="1" as="geometry">
            <mxPoint x="270" y="290" as="targetPoint" />
          </mxGeometry>
        </mxCell>
        <mxCell id="y-c79x19_z0pfd8Fm0gz-15" style="edgeStyle=orthogonalEdgeStyle;rounded=0;orthogonalLoop=1;jettySize=auto;html=1;" edge="1" parent="1" source="y-c79x19_z0pfd8Fm0gz-4" target="y-c79x19_z0pfd8Fm0gz-6">
          <mxGeometry relative="1" as="geometry" />
        </mxCell>
        <mxCell id="y-c79x19_z0pfd8Fm0gz-16" style="edgeStyle=orthogonalEdgeStyle;rounded=0;orthogonalLoop=1;jettySize=auto;html=1;" edge="1" parent="1" source="y-c79x19_z0pfd8Fm0gz-4" target="y-c79x19_z0pfd8Fm0gz-5">
          <mxGeometry relative="1" as="geometry" />
        </mxCell>
        <mxCell id="y-c79x19_z0pfd8Fm0gz-4" value="Menú Principal" style="ellipse;whiteSpace=wrap;html=1;" vertex="1" parent="1">
          <mxGeometry y="320" width="90" height="40" as="geometry" />
        </mxCell>
        <mxCell id="y-c79x19_z0pfd8Fm0gz-18" style="edgeStyle=orthogonalEdgeStyle;rounded=0;orthogonalLoop=1;jettySize=auto;html=1;exitX=0.5;exitY=1;exitDx=0;exitDy=0;entryX=0.5;entryY=0;entryDx=0;entryDy=0;" edge="1" parent="1" source="y-c79x19_z0pfd8Fm0gz-5" target="y-c79x19_z0pfd8Fm0gz-17">
          <mxGeometry relative="1" as="geometry" />
        </mxCell>
        <mxCell id="y-c79x19_z0pfd8Fm0gz-5" value="Perfil" style="ellipse;whiteSpace=wrap;html=1;" vertex="1" parent="1">
          <mxGeometry x="420" y="480" width="90" height="40" as="geometry" />
        </mxCell>
        <mxCell id="y-c79x19_z0pfd8Fm0gz-43" style="edgeStyle=orthogonalEdgeStyle;rounded=0;orthogonalLoop=1;jettySize=auto;html=1;" edge="1" parent="1" source="y-c79x19_z0pfd8Fm0gz-6" target="y-c79x19_z0pfd8Fm0gz-33">
          <mxGeometry relative="1" as="geometry" />
        </mxCell>
        <mxCell id="y-c79x19_z0pfd8Fm0gz-44" style="edgeStyle=orthogonalEdgeStyle;rounded=0;orthogonalLoop=1;jettySize=auto;html=1;entryX=0.5;entryY=0;entryDx=0;entryDy=0;" edge="1" parent="1" source="y-c79x19_z0pfd8Fm0gz-6" target="y-c79x19_z0pfd8Fm0gz-40">
          <mxGeometry relative="1" as="geometry" />
        </mxCell>
        <mxCell id="y-c79x19_z0pfd8Fm0gz-6" value="Mantenimientos" style="ellipse;whiteSpace=wrap;html=1;" vertex="1" parent="1">
          <mxGeometry x="140" y="480" width="90" height="40" as="geometry" />
        </mxCell>
        <mxCell id="y-c79x19_z0pfd8Fm0gz-19" style="edgeStyle=orthogonalEdgeStyle;rounded=0;orthogonalLoop=1;jettySize=auto;html=1;" edge="1" parent="1" source="y-c79x19_z0pfd8Fm0gz-7" target="y-c79x19_z0pfd8Fm0gz-9">
          <mxGeometry relative="1" as="geometry" />
        </mxCell>
        <mxCell id="y-c79x19_z0pfd8Fm0gz-25" style="edgeStyle=orthogonalEdgeStyle;rounded=0;orthogonalLoop=1;jettySize=auto;html=1;" edge="1" parent="1" source="y-c79x19_z0pfd8Fm0gz-7" target="y-c79x19_z0pfd8Fm0gz-8">
          <mxGeometry relative="1" as="geometry" />
        </mxCell>
        <mxCell id="y-c79x19_z0pfd8Fm0gz-7" value="Mi Garaje" style="ellipse;whiteSpace=wrap;html=1;" vertex="1" parent="1">
          <mxGeometry x="-260" y="480" width="90" height="40" as="geometry" />
        </mxCell>
        <mxCell id="y-c79x19_z0pfd8Fm0gz-27" style="edgeStyle=orthogonalEdgeStyle;rounded=0;orthogonalLoop=1;jettySize=auto;html=1;entryX=1;entryY=0.5;entryDx=0;entryDy=0;" edge="1" parent="1" source="y-c79x19_z0pfd8Fm0gz-8" target="y-c79x19_z0pfd8Fm0gz-9">
          <mxGeometry relative="1" as="geometry" />
        </mxCell>
        <mxCell id="y-c79x19_z0pfd8Fm0gz-8" value="Añadir Nueva Moto" style="ellipse;whiteSpace=wrap;html=1;" vertex="1" parent="1">
          <mxGeometry x="-100" y="565" width="90" height="40" as="geometry" />
        </mxCell>
        <mxCell id="y-c79x19_z0pfd8Fm0gz-20" style="edgeStyle=orthogonalEdgeStyle;rounded=0;orthogonalLoop=1;jettySize=auto;html=1;" edge="1" parent="1" source="y-c79x19_z0pfd8Fm0gz-9" target="y-c79x19_z0pfd8Fm0gz-13">
          <mxGeometry relative="1" as="geometry" />
        </mxCell>
        <mxCell id="y-c79x19_z0pfd8Fm0gz-9" value="Lista Motos" style="ellipse;whiteSpace=wrap;html=1;" vertex="1" parent="1">
          <mxGeometry x="-260" y="565" width="90" height="40" as="geometry" />
        </mxCell>
        <mxCell id="y-c79x19_z0pfd8Fm0gz-10" value="Añadir Foto" style="ellipse;whiteSpace=wrap;html=1;" vertex="1" parent="1">
          <mxGeometry x="-370" y="730" width="90" height="40" as="geometry" />
        </mxCell>
        <mxCell id="y-c79x19_z0pfd8Fm0gz-11" value="Borrar Moto" style="ellipse;whiteSpace=wrap;html=1;" vertex="1" parent="1">
          <mxGeometry x="-260" y="730" width="90" height="40" as="geometry" />
        </mxCell>
        <mxCell id="y-c79x19_z0pfd8Fm0gz-12" value="Establecer Principal" style="ellipse;whiteSpace=wrap;html=1;" vertex="1" parent="1">
          <mxGeometry x="-150" y="730" width="90" height="40" as="geometry" />
        </mxCell>
        <mxCell id="y-c79x19_z0pfd8Fm0gz-21" style="edgeStyle=orthogonalEdgeStyle;rounded=0;orthogonalLoop=1;jettySize=auto;html=1;exitX=0;exitY=0.5;exitDx=0;exitDy=0;" edge="1" parent="1" source="y-c79x19_z0pfd8Fm0gz-13" target="y-c79x19_z0pfd8Fm0gz-10">
          <mxGeometry relative="1" as="geometry" />
        </mxCell>
        <mxCell id="y-c79x19_z0pfd8Fm0gz-22" style="edgeStyle=orthogonalEdgeStyle;rounded=0;orthogonalLoop=1;jettySize=auto;html=1;" edge="1" parent="1" source="y-c79x19_z0pfd8Fm0gz-13" target="y-c79x19_z0pfd8Fm0gz-11">
          <mxGeometry relative="1" as="geometry" />
        </mxCell>
        <mxCell id="y-c79x19_z0pfd8Fm0gz-23" style="edgeStyle=orthogonalEdgeStyle;rounded=0;orthogonalLoop=1;jettySize=auto;html=1;" edge="1" parent="1" source="y-c79x19_z0pfd8Fm0gz-13" target="y-c79x19_z0pfd8Fm0gz-12">
          <mxGeometry relative="1" as="geometry" />
        </mxCell>
        <mxCell id="y-c79x19_z0pfd8Fm0gz-55" style="edgeStyle=orthogonalEdgeStyle;rounded=0;orthogonalLoop=1;jettySize=auto;html=1;entryX=0.5;entryY=1;entryDx=0;entryDy=0;" edge="1" parent="1" source="y-c79x19_z0pfd8Fm0gz-13" target="y-c79x19_z0pfd8Fm0gz-53">
          <mxGeometry relative="1" as="geometry" />
        </mxCell>
        <mxCell id="y-c79x19_z0pfd8Fm0gz-13" value="Moto" style="ellipse;whiteSpace=wrap;html=1;" vertex="1" parent="1">
          <mxGeometry x="-260" y="655" width="90" height="40" as="geometry" />
        </mxCell>
        <mxCell id="y-c79x19_z0pfd8Fm0gz-17" value="Consultar Info Perfil" style="ellipse;whiteSpace=wrap;html=1;" vertex="1" parent="1">
          <mxGeometry x="420" y="560" width="90" height="40" as="geometry" />
        </mxCell>
        <mxCell id="y-c79x19_z0pfd8Fm0gz-36" style="edgeStyle=orthogonalEdgeStyle;rounded=0;orthogonalLoop=1;jettySize=auto;html=1;exitX=0.5;exitY=1;exitDx=0;exitDy=0;" edge="1" parent="1" source="y-c79x19_z0pfd8Fm0gz-33" target="y-c79x19_z0pfd8Fm0gz-35">
          <mxGeometry relative="1" as="geometry" />
        </mxCell>
        <mxCell id="y-c79x19_z0pfd8Fm0gz-33" value="Crear Mantenimiento" style="ellipse;whiteSpace=wrap;html=1;" vertex="1" parent="1">
          <mxGeometry x="60" y="560" width="90" height="40" as="geometry" />
        </mxCell>
        <mxCell id="y-c79x19_z0pfd8Fm0gz-38" style="edgeStyle=orthogonalEdgeStyle;rounded=0;orthogonalLoop=1;jettySize=auto;html=1;" edge="1" parent="1" source="y-c79x19_z0pfd8Fm0gz-35" target="y-c79x19_z0pfd8Fm0gz-37">
          <mxGeometry relative="1" as="geometry" />
        </mxCell>
        <mxCell id="y-c79x19_z0pfd8Fm0gz-35" value="Crear Mantenimiento" style="ellipse;whiteSpace=wrap;html=1;" vertex="1" parent="1">
          <mxGeometry x="60" y="670" width="90" height="40" as="geometry" />
        </mxCell>
        <mxCell id="y-c79x19_z0pfd8Fm0gz-37" value="Guardar Mantenimiento" style="ellipse;whiteSpace=wrap;html=1;" vertex="1" parent="1">
          <mxGeometry x="60" y="730" width="90" height="40" as="geometry" />
        </mxCell>
        <mxCell id="y-c79x19_z0pfd8Fm0gz-48" style="edgeStyle=orthogonalEdgeStyle;rounded=0;orthogonalLoop=1;jettySize=auto;html=1;" edge="1" parent="1" source="y-c79x19_z0pfd8Fm0gz-40" target="y-c79x19_z0pfd8Fm0gz-46">
          <mxGeometry relative="1" as="geometry" />
        </mxCell>
        <mxCell id="y-c79x19_z0pfd8Fm0gz-40" value="Historial&lt;div&gt;Mantenimientos&lt;/div&gt;" style="ellipse;whiteSpace=wrap;html=1;" vertex="1" parent="1">
          <mxGeometry x="240" y="560" width="90" height="40" as="geometry" />
        </mxCell>
        <mxCell id="y-c79x19_z0pfd8Fm0gz-46" value="Consultar Mantenimiento" style="ellipse;whiteSpace=wrap;html=1;" vertex="1" parent="1">
          <mxGeometry x="240" y="680" width="90" height="40" as="geometry" />
        </mxCell>
        <mxCell id="y-c79x19_z0pfd8Fm0gz-54" style="edgeStyle=orthogonalEdgeStyle;rounded=0;orthogonalLoop=1;jettySize=auto;html=1;" edge="1" parent="1" source="y-c79x19_z0pfd8Fm0gz-53" target="y-c79x19_z0pfd8Fm0gz-9">
          <mxGeometry relative="1" as="geometry" />
        </mxCell>
        <mxCell id="y-c79x19_z0pfd8Fm0gz-53" value="Volver" style="ellipse;whiteSpace=wrap;html=1;" vertex="1" parent="1">
          <mxGeometry x="-470" y="560" width="90" height="50" as="geometry" />
        </mxCell>
        <mxCell id="y-c79x19_z0pfd8Fm0gz-56" style="edgeStyle=orthogonalEdgeStyle;rounded=0;orthogonalLoop=1;jettySize=auto;html=1;entryX=0.444;entryY=0.25;entryDx=0;entryDy=0;entryPerimeter=0;" edge="1" parent="1" source="y-c79x19_z0pfd8Fm0gz-3" target="y-c79x19_z0pfd8Fm0gz-4">
          <mxGeometry relative="1" as="geometry" />
        </mxCell>
      </root>
    </mxGraphModel>
  </diagram>
</mxfile>
